<svg width="1280" height="720" viewBox="0 0 1280 720" fill="none" xmlns="http://www.w3.org/2000/svg">
<mask id="mask0_241_472" style="mask-type:luminance" maskUnits="userSpaceOnUse" x="0" y="0" width="1280" height="720">
<path d="M1280 0H0V720H1280V0Z" fill="white"/>
</mask>
<g mask="url(#mask0_241_472)">
<path d="M1295 0H15V720H1295V0Z" fill="#8B3435"/>
<path d="M1295 0H0V720H1295V0Z" fill="url(#paint0_linear_241_472)"/>
<path d="M0 0L0 62L1295 62V0L0 0Z" fill="#8B3435"/>
<g filter="url(#filter0_d_241_472)">
<path d="M1225.31 78H57.6944C33.5626 78 14 87.3227 14 98.8229V684.177C14 695.677 33.5626 705 57.6944 705H1225.31C1249.44 705 1269 695.677 1269 684.177V98.8229C1269 87.3227 1249.44 78 1225.31 78Z" fill="#FBF2F2"/>
</g>
<mask id="mask1_241_472" style="mask-type:luminance" maskUnits="userSpaceOnUse" x="15" y="4" width="44" height="54">
<path d="M58.2923 4H15V57.0192H58.2923V4Z" fill="white"/>
</mask>
<g mask="url(#mask1_241_472)">
<path d="M38.6718 51.906C38.6718 53.982 38.7122 54.564 38.7655 54.947C38.8187 55.291 38.8728 55.437 39.0868 55.542L39.0999 55.569V55.767C38.725 55.741 38.4712 55.741 38.1901 55.741C37.9089 55.741 37.6546 55.741 37.2797 55.767V55.569L37.2934 55.542C37.5076 55.437 37.5609 55.291 37.6147 54.947C37.668 54.564 37.7079 53.982 37.7079 51.906C37.7079 50.147 37.7079 49.208 37.668 48.441H37.521C37.186 48.441 36.9986 48.573 36.8248 48.877C36.6511 49.181 36.5705 49.631 36.5306 50.147L36.5038 50.16H36.2495C36.2762 49.419 36.3295 48.546 36.3295 48.044C37.012 48.07 37.5338 48.07 38.1898 48.07C38.8458 48.07 39.354 48.07 40.0496 48.044C40.0496 48.546 40.09 49.419 40.1302 50.16H39.8758L39.849 50.147C39.8086 49.631 39.7285 49.181 39.5548 48.877C39.3805 48.573 39.1799 48.441 38.8586 48.441H38.7116C38.6718 49.208 38.6718 50.147 38.6718 51.906Z" fill="white"/>
<path d="M45.3891 51.68C45.3891 54.537 44.5328 55.873 43.3687 55.873C42.0843 55.873 41.375 54.537 41.375 52.064C41.375 49.208 42.1512 47.937 43.3954 47.937C44.72 47.937 45.3891 49.644 45.3891 51.68ZM44.2118 51.799C44.2118 49.577 44.0375 48.4 43.3821 48.4C42.7528 48.4 42.5517 49.168 42.5517 51.932C42.5517 54.484 42.7793 55.423 43.3949 55.423C44.0104 55.423 44.2118 54.564 44.2118 51.799Z" fill="white"/>
<path d="M51.0763 55.569V55.767C50.7014 55.741 49.8452 55.741 49.5239 55.741C49.3769 54.656 49.1895 53.4659 48.9622 52.2229C48.9084 51.9189 48.7346 51.813 48.5472 51.813H48.3734C48.3734 53.889 48.4133 54.5639 48.4671 54.9469C48.5204 55.2909 48.5739 55.437 48.7879 55.542L48.8015 55.569V55.767C48.4267 55.741 48.1723 55.741 47.8912 55.741C47.6106 55.741 47.3562 55.741 46.9814 55.767V55.569L46.9951 55.542C47.2093 55.437 47.2625 55.2909 47.3158 54.9469C47.3691 54.5639 47.4095 53.982 47.4095 51.905C47.4095 49.829 47.3691 49.2469 47.3158 48.8639C47.2625 48.5199 47.209 48.387 46.9951 48.268L46.9814 48.242V48.043C47.3562 48.07 47.6106 48.07 47.8912 48.07C48.2256 48.07 48.413 48.07 49.0824 48.043C49.9791 48.003 50.661 48.7309 50.661 49.7229C50.661 50.6489 50.1528 51.2969 49.39 51.5879C49.7512 51.6799 50.046 51.984 50.0993 52.342C50.2198 53.109 50.3804 53.9679 50.5943 54.9469C50.6607 55.2249 50.8481 55.437 51.0623 55.542L51.0763 55.569ZM48.3731 51.469H48.5469C49.1624 51.469 49.5373 51.033 49.5373 49.974C49.5373 49.049 49.3097 48.467 48.6138 48.467C48.5469 48.467 48.48 48.467 48.4264 48.493C48.3862 49.26 48.3731 50.067 48.3731 51.469Z" fill="white"/>
<path d="M53.7787 54.947C53.832 55.291 53.8861 55.437 54.1 55.542L54.1132 55.569V55.767C53.7383 55.741 53.4845 55.741 53.2034 55.741C52.9222 55.741 52.6679 55.741 52.293 55.767V55.569L52.3067 55.542C52.5209 55.437 52.5741 55.291 52.6274 54.947C52.6812 54.564 52.7211 53.982 52.7211 51.906C52.7211 49.829 52.6812 49.247 52.6274 48.864C52.5741 48.52 52.5206 48.388 52.3067 48.268L52.293 48.242V48.044C52.6679 48.07 52.9222 48.07 53.2034 48.07C53.4845 48.07 53.7383 48.07 54.1132 48.044V48.242L54.1 48.268C53.8858 48.388 53.832 48.52 53.7787 48.864C53.7255 49.247 53.685 49.829 53.685 51.906C53.685 53.982 53.7255 54.564 53.7787 54.947Z" fill="white"/>
<path d="M57.3514 54.947C57.4047 55.291 57.4582 55.437 57.6721 55.542L57.6858 55.569V55.767C57.311 55.741 57.0566 55.741 56.776 55.741C56.4949 55.741 56.2405 55.741 55.8657 55.767V55.569L55.8793 55.542C56.0935 55.437 56.1468 55.291 56.2001 54.947C56.2533 54.564 56.2938 53.982 56.2938 51.906C56.2938 49.829 56.2533 49.247 56.2001 48.864C56.1468 48.52 56.0933 48.388 55.8793 48.268L55.8657 48.242V48.044C56.2405 48.07 56.4949 48.07 56.776 48.07C57.0566 48.07 57.311 48.07 57.6858 48.044V48.242L57.6721 48.268C57.4579 48.388 57.4047 48.52 57.3514 48.864C57.2981 49.247 57.2577 49.829 57.2577 51.906C57.2577 53.982 57.2979 54.564 57.3514 54.947Z" fill="white"/>
<path d="M17.9983 55.7669C17.6508 55.7539 17.4232 55.7409 17.0084 55.7409C16.7273 55.7409 16.4729 55.7409 16.0981 55.7669V55.569L16.1118 55.542C16.326 55.436 16.3792 55.2909 16.4325 54.9469C16.4858 54.5639 16.5262 53.9819 16.5262 51.9049C16.5262 49.8289 16.4858 49.247 16.4325 48.863C16.3792 48.519 16.3257 48.387 16.1118 48.268L16.0981 48.242V48.0429C16.4729 48.0699 16.7273 48.07 17.0084 48.07C17.356 48.07 17.5434 48.0699 18.0253 48.0429C19.457 47.9639 20.367 49.405 20.367 51.548C20.3673 54.63 19.0958 55.8339 17.9983 55.7669ZM19.1895 51.5879C19.1895 49.3659 18.7745 48.427 17.9447 48.427C17.8109 48.427 17.6505 48.44 17.5434 48.467C17.5035 48.745 17.4901 49.22 17.4901 51.906C17.4901 53.652 17.5038 54.353 17.5434 54.881C17.5702 55.225 17.704 55.344 18.0256 55.344C18.895 55.344 19.1895 54.4709 19.1895 51.5879Z" fill="white"/>
<path d="M25.8392 55.569V55.767C25.4649 55.741 25.1168 55.741 24.8357 55.741C24.5546 55.741 24.3275 55.741 23.9527 55.767V55.569L23.9658 55.542C24.18 55.489 24.2871 55.37 24.2606 55.145C24.1937 54.564 24.0464 53.545 23.9125 52.844C23.7388 52.831 23.5112 52.818 23.2839 52.818C23.0964 52.818 22.9489 52.831 22.7751 52.844C22.6546 53.453 22.5077 54.431 22.4407 54.947C22.3875 55.291 22.4407 55.463 22.6145 55.542L22.6282 55.569V55.767C22.3875 55.741 22.1459 55.741 21.932 55.741C21.7181 55.741 21.5708 55.741 21.3301 55.767V55.569L21.3438 55.542C21.5845 55.463 21.7582 55.291 21.8383 54.947C22.2664 53.149 22.6951 50.768 23.0563 48.467L23.083 48.414C23.4175 48.215 23.6849 48.03 23.9797 47.739H24.1002C24.4614 50.226 24.8764 52.514 25.3718 54.947C25.4387 55.291 25.586 55.449 25.8266 55.542L25.8392 55.569ZM23.8592 52.448C23.7388 51.588 23.5248 50.239 23.3907 49.485C23.15 50.437 22.9757 51.39 22.8284 52.448C22.9754 52.461 23.1497 52.474 23.3106 52.474C23.5246 52.474 23.6849 52.461 23.8592 52.448Z" fill="white"/>
<path d="M28.9843 51.906C28.9843 53.982 29.0241 54.564 29.078 54.947C29.1312 55.291 29.1848 55.437 29.3987 55.542L29.4124 55.569V55.767C29.0375 55.741 28.7832 55.741 28.502 55.741C28.2214 55.741 27.9671 55.741 27.5922 55.767V55.569L27.6059 55.542C27.8201 55.437 27.8734 55.291 27.9266 54.947C27.9799 54.564 28.0204 53.982 28.0204 51.906C28.0204 50.147 28.0204 49.208 27.9799 48.441H27.8329C27.4985 48.441 27.3111 48.573 27.1373 48.877C26.963 49.181 26.883 49.631 26.8425 50.147L26.8158 50.16H26.562C26.5887 49.419 26.642 48.546 26.642 48.044C27.3245 48.07 27.8463 48.07 28.5017 48.07C29.1577 48.07 29.6665 48.07 30.3621 48.044C30.3621 48.546 30.4025 49.419 30.4421 50.16H30.1883L30.1615 50.147C30.1211 49.631 30.041 49.181 29.8667 48.877C29.693 48.573 29.4919 48.441 29.1711 48.441H29.0236C28.9843 49.208 28.9843 50.147 28.9843 51.906Z" fill="white"/>
<path d="M35.5273 55.569V55.767C35.1524 55.741 34.8043 55.741 34.5232 55.741C34.2426 55.741 34.015 55.741 33.6402 55.767V55.569L33.6538 55.542C33.868 55.489 33.9746 55.37 33.9481 55.145C33.8812 54.564 33.7339 53.545 33.6006 52.844C33.4263 52.831 33.1987 52.818 32.9714 52.818C32.7839 52.818 32.6369 52.831 32.4626 52.844C32.3421 53.453 32.1952 54.431 32.1282 54.947C32.075 55.291 32.1282 55.463 32.3025 55.542L32.3156 55.569V55.767C32.075 55.741 31.834 55.741 31.6201 55.741C31.4061 55.741 31.2589 55.741 31.0176 55.767V55.569L31.0313 55.542C31.272 55.463 31.4457 55.291 31.5263 54.947C31.9545 53.149 32.3826 50.768 32.7438 48.467L32.7705 48.414C33.105 48.215 33.373 48.03 33.6672 47.739H33.7877C34.1495 50.226 34.5639 52.514 35.0593 54.947C35.1262 55.291 35.2735 55.449 35.5141 55.542L35.5273 55.569ZM33.5467 52.448C33.4263 51.588 33.2123 50.239 33.0782 49.485C32.8375 50.437 32.6637 51.39 32.5165 52.448C32.6634 52.461 32.8372 52.474 32.9981 52.474C33.2123 52.474 33.373 52.461 33.5467 52.448Z" fill="white"/>
<path d="M36.05 28.874V25.297C33.7384 25.285 32.6256 25.226 31.0283 25.14V25.818H30.5039L30.5363 28.233H31.4324V28.874H36.05Z" fill="white"/>
<path d="M43.8287 31.634H37.123V31.621H30.5918L30.8958 42.271C32.8075 42.937 34.8644 43.301 37.007 43.301C39.3607 43.301 41.6106 42.863 43.6787 42.066L43.8287 31.634Z" fill="white"/>
<path d="M38.3701 25.297V28.887H42.9865V28.233H43.8846L43.908 25.818H43.384V25.14C41.795 25.227 40.6744 25.285 38.3701 25.297Z" fill="white"/>
<path d="M52.8661 15.993H51.0451V13.475H51.068C47.6994 9.51598 42.6509 7 37.0072 7C26.8651 7 18.6426 15.126 18.6426 25.15C18.6426 31.797 22.2581 37.608 27.6505 40.77L27.945 31.621H23.2426V28.874H27.1111V28.233H28.003L28.0245 25.818H27.516V24.948C23.8465 24.632 22.9258 24.186 22.9258 24.186V22.88C22.3515 22.78 22.1554 22.721 22.1554 22.721L21.2002 19.408C21.2002 19.408 24.5133 21.511 37.1232 21.511H37.2978V21.523C41.123 21.519 44.0914 21.323 46.3721 21.052V21.974H47.7939V21.535H49.1489V22.194H51.0546V20.952H52.8137V22.691C52.8137 22.691 52.0601 22.78 51.4886 22.88V24.186C51.4886 24.186 50.5682 24.632 46.9037 24.949V25.818H46.3871L46.4189 28.233H47.3089V28.888H51.1782V31.634H46.4663L46.907 40.441C51.9979 37.214 55.3712 31.572 55.3712 25.151C55.3715 21.81 54.4581 18.682 52.8661 15.993ZM47.7381 20.393H46.1751V18.848H47.7381V20.393ZM48.9589 16.685H47.5599V15.302H48.9589V16.685ZM51.8264 19.302H50.067V17.563H51.8264V19.302Z" fill="white"/>
</g>
</g>
<defs>
<filter id="filter0_d_241_472" x="4" y="72" width="1275" height="647" filterUnits="userSpaceOnUse" color-interpolation-filters="sRGB">
<feFlood flood-opacity="0" result="BackgroundImageFix"/>
<feColorMatrix in="SourceAlpha" type="matrix" values="0 0 0 0 0 0 0 0 0 0 0 0 0 0 0 0 0 0 127 0" result="hardAlpha"/>
<feOffset dy="4"/>
<feGaussianBlur stdDeviation="5"/>
<feComposite in2="hardAlpha" operator="out"/>
<feColorMatrix type="matrix" values="0 0 0 0 0 0 0 0 0 0 0 0 0 0 0 0 0 0 0.3 0"/>
<feBlend mode="normal" in2="BackgroundImageFix" result="effect1_dropShadow_241_472"/>
<feBlend mode="normal" in="SourceGraphic" in2="effect1_dropShadow_241_472" result="shape"/>
</filter>
<linearGradient id="paint0_linear_241_472" x1="1191.3" y1="-57.9999" x2="9.11959" y2="733.619" gradientUnits="userSpaceOnUse">
<stop offset="0.0378536" stop-color="#5B0B0C"/>
<stop offset="0.7" stop-color="#C58C8D"/>
<stop offset="1" stop-color="#FFE1E1"/>
</linearGradient>
</defs>
</svg>
